<svg xmlns="http://www.w3.org/2000/svg" viewBox="0 0 800 450" width="800" height="450">
  <defs>
    <linearGradient id="bg" x1="0" y1="0" x2="1" y2="1">
      <stop offset="0%" stop-color="#060d16"/>
      <stop offset="100%" stop-color="#0a1628"/>
    </linearGradient>
  </defs>

  <!-- Background -->
  <rect width="800" height="450" fill="url(#bg)"/>

  <!-- Top bar -->
  <rect width="800" height="46" fill="#0d1a2d"/>
  <rect x="16" y="14" width="80" height="18" rx="9" fill="#7b68ee" opacity="0.9"/>
  <rect x="26" y="19" width="60" height="8" rx="4" fill="white" opacity="0.9"/>
  <rect x="110" y="18" width="60" height="10" rx="5" fill="#1e2a4a"/>
  <rect x="116" y="21" width="48" height="4" rx="2" fill="#64748b" opacity="0.5"/>
  <rect x="180" y="18" width="60" height="10" rx="5" fill="#1e2a4a"/>
  <rect x="186" y="21" width="48" height="4" rx="2" fill="#64748b" opacity="0.5"/>
  <rect x="600" y="14" width="90" height="18" rx="9" fill="#1e2a4a" stroke="#7b68ee" stroke-width="0.8" stroke-opacity="0.5"/>
  <rect x="610" y="19" width="70" height="8" rx="4" fill="#7b68ee" opacity="0.6"/>
  <rect x="700" y="14" width="80" height="18" rx="9" fill="#10b981" opacity="0.9"/>
  <rect x="710" y="19" width="60" height="8" rx="4" fill="white" opacity="0.9"/>

  <!-- Left nav -->
  <rect x="0" y="46" width="200" height="404" fill="#080e1c"/>
  <!-- API title -->
  <rect x="16" y="58" width="90" height="8" rx="4" fill="#7b68ee" opacity="0.7"/>
  <rect x="16" y="70" width="60" height="5" rx="2.5" fill="#94a3b8" opacity="0.3"/>
  <!-- Endpoint groups -->
  <!-- Auth -->
  <rect x="0" y="86" width="200" height="1" fill="#ffffff" opacity="0.04"/>
  <rect x="16" y="95" width="10" height="10" rx="2" fill="#f59e0b" opacity="0.8"/>
  <rect x="32" y="98" width="50" height="5" rx="2.5" fill="#e2e8f0" opacity="0.7"/>
  <rect x="20" y="114" width="6" height="6" rx="1.5" fill="#10b981"/>
  <rect x="32" y="116" width="80" height="4" rx="2" fill="#94a3b8" opacity="0.4"/>
  <rect x="20" y="128" width="6" height="6" rx="1.5" fill="#10b981"/>
  <rect x="32" y="130" width="70" height="4" rx="2" fill="#94a3b8" opacity="0.4"/>
  <rect x="20" y="142" width="6" height="6" rx="1.5" fill="#3b82f6"/>
  <rect x="32" y="144" width="90" height="4" rx="2" fill="#94a3b8" opacity="0.4"/>
  <!-- Users -->
  <rect x="0" y="160" width="200" height="1" fill="#ffffff" opacity="0.04"/>
  <rect x="16" y="169" width="10" height="10" rx="2" fill="#7b68ee" opacity="0.8"/>
  <rect x="32" y="172" width="46" height="5" rx="2.5" fill="#e2e8f0" opacity="0.7"/>
  <rect x="20" y="188" width="6" height="6" rx="1.5" fill="#10b981"/>
  <rect x="32" y="190" width="85" height="4" rx="2" fill="#7b68ee" opacity="0.6" stroke="#0d1a2d" stroke-width="0"/>
  <rect x="0" y="186" width="200" height="14" rx="0" fill="#7b68ee" opacity="0.06"/>
  <rect x="20" y="204" width="6" height="6" rx="1.5" fill="#10b981"/>
  <rect x="32" y="206" width="70" height="4" rx="2" fill="#94a3b8" opacity="0.4"/>
  <rect x="20" y="218" width="6" height="6" rx="1.5" fill="#f59e0b"/>
  <rect x="32" y="220" width="80" height="4" rx="2" fill="#94a3b8" opacity="0.4"/>
  <rect x="20" y="232" width="6" height="6" rx="1.5" fill="#ef4444"/>
  <rect x="32" y="234" width="75" height="4" rx="2" fill="#94a3b8" opacity="0.4"/>
  <!-- Products -->
  <rect x="0" y="250" width="200" height="1" fill="#ffffff" opacity="0.04"/>
  <rect x="16" y="259" width="10" height="10" rx="2" fill="#06b6d4" opacity="0.8"/>
  <rect x="32" y="262" width="60" height="5" rx="2.5" fill="#e2e8f0" opacity="0.7"/>
  <rect x="20" y="278" width="6" height="6" rx="1.5" fill="#10b981"/>
  <rect x="32" y="280" width="80" height="4" rx="2" fill="#94a3b8" opacity="0.4"/>
  <rect x="20" y="292" width="6" height="6" rx="1.5" fill="#10b981"/>
  <rect x="32" y="294" width="90" height="4" rx="2" fill="#94a3b8" opacity="0.4"/>

  <!-- Main content -->
  <!-- Endpoint header -->
  <rect x="212" y="56" width="576" height="52" rx="10" fill="#0d1a2d"/>
  <rect x="226" y="68" width="42" height="20" rx="6" fill="#10b981"/>
  <rect x="232" y="74" width="30" height="8" rx="4" fill="white" opacity="0.95"/>
  <rect x="278" y="70" width="200" height="8" rx="4" fill="#e2e8f0" opacity="0.8"/>
  <rect x="278" y="82" width="150" height="5" rx="2.5" fill="#94a3b8" opacity="0.3"/>
  <rect x="676" y="64" width="96" height="28" rx="8" fill="#10b981" opacity="0.15" stroke="#10b981" stroke-width="0.8" stroke-opacity="0.4"/>
  <rect x="686" y="75" width="76" height="6" rx="3" fill="#10b981" opacity="0.7"/>

  <!-- Parameters section -->
  <rect x="212" y="120" width="576" height="1" fill="#ffffff" opacity="0.04"/>
  <rect x="212" y="128" width="80" height="6" rx="3" fill="#94a3b8" opacity="0.5"/>
  <!-- Param rows -->
  <rect x="212" y="144" width="576" height="36" rx="8" fill="#0d1a2d"/>
  <rect x="228" y="152" width="60" height="5" rx="2.5" fill="#06b6d4" opacity="0.8"/>
  <rect x="310" y="152" width="50" height="5" rx="2.5" fill="#64748b" opacity="0.4"/>
  <rect x="390" y="148" width="30" height="14" rx="7" fill="#ef4444" opacity="0.15"/>
  <rect x="396" y="152" width="18" height="6" rx="3" fill="#ef4444" opacity="0.7"/>
  <rect x="440" y="152" width="130" height="5" rx="2.5" fill="#94a3b8" opacity="0.3"/>
  <rect x="212" y="186" width="576" height="36" rx="8" fill="#0a1628"/>
  <rect x="228" y="194" width="50" height="5" rx="2.5" fill="#06b6d4" opacity="0.6"/>
  <rect x="310" y="194" width="60" height="5" rx="2.5" fill="#64748b" opacity="0.4"/>
  <rect x="390" y="190" width="50" height="14" rx="7" fill="#f59e0b" opacity="0.1"/>
  <rect x="396" y="194" width="38" height="6" rx="3" fill="#f59e0b" opacity="0.6"/>
  <rect x="460" y="194" width="110" height="5" rx="2.5" fill="#94a3b8" opacity="0.3"/>
  <rect x="212" y="228" width="576" height="36" rx="8" fill="#0d1a2d"/>
  <rect x="228" y="236" width="70" height="5" rx="2.5" fill="#06b6d4" opacity="0.6"/>
  <rect x="310" y="236" width="55" height="5" rx="2.5" fill="#64748b" opacity="0.4"/>
  <rect x="390" y="232" width="50" height="14" rx="7" fill="#f59e0b" opacity="0.1"/>
  <rect x="396" y="236" width="38" height="6" rx="3" fill="#f59e0b" opacity="0.6"/>
  <rect x="460" y="236" width="120" height="5" rx="2.5" fill="#94a3b8" opacity="0.3"/>

  <!-- Response section -->
  <rect x="212" y="276" width="576" height="1" fill="#ffffff" opacity="0.04"/>
  <rect x="212" y="284" width="70" height="6" rx="3" fill="#94a3b8" opacity="0.5"/>
  <!-- Status codes -->
  <rect x="212" y="300" width="130" height="30" rx="8" fill="#10b981" opacity="0.15" stroke="#10b981" stroke-width="0.8" stroke-opacity="0.3"/>
  <rect x="222" y="311" width="18" height="8" rx="4" fill="#10b981"/>
  <rect x="246" y="311" width="60" height="8" rx="4" fill="#10b981" opacity="0.5"/>
  <rect x="352" y="300" width="110" height="30" rx="8" fill="#f59e0b" opacity="0.1"/>
  <rect x="362" y="311" width="18" height="8" rx="4" fill="#f59e0b" opacity="0.7"/>
  <rect x="386" y="311" width="60" height="8" rx="4" fill="#f59e0b" opacity="0.4"/>
  <rect x="474" y="300" width="110" height="30" rx="8" fill="#ef4444" opacity="0.1"/>
  <rect x="484" y="311" width="18" height="8" rx="4" fill="#ef4444" opacity="0.7"/>
  <rect x="508" y="311" width="60" height="8" rx="4" fill="#ef4444" opacity="0.4"/>

  <!-- JSON Response box -->
  <rect x="212" y="342" width="576" height="96" rx="10" fill="#060d16" stroke="#ffffff" stroke-width="0.3" stroke-opacity="0.06"/>
  <rect x="212" y="342" width="576" height="20" rx="10" fill="#0d1a2d"/>
  <rect x="212" y="352" width="576" height="10" rx="0" fill="#0d1a2d"/>
  <rect x="228" y="345" width="8" height="8" rx="2" fill="#ef4444" opacity="0.6"/>
  <rect x="242" y="345" width="8" height="8" rx="2" fill="#f59e0b" opacity="0.6"/>
  <rect x="256" y="345" width="8" height="8" rx="2" fill="#10b981" opacity="0.6"/>
  <rect x="276" y="347" width="60" height="4" rx="2" fill="#64748b" opacity="0.3"/>
  <!-- JSON content -->
  <rect x="228" y="368" width="8" height="7" rx="1.5" fill="#94a3b8" opacity="0.5"/>
  <rect x="244" y="368" width="30" height="7" rx="3.5" fill="#f59e0b" opacity="0.7"/>
  <rect x="280" y="370" width="60" height="4" rx="2" fill="#10b981" opacity="0.6"/>
  <rect x="244" y="382" width="24" height="7" rx="3.5" fill="#7b68ee" opacity="0.7"/>
  <rect x="274" y="384" width="80" height="4" rx="2" fill="#e2e8f0" opacity="0.5"/>
  <rect x="244" y="396" width="30" height="7" rx="3.5" fill="#7b68ee" opacity="0.7"/>
  <rect x="280" y="398" width="50" height="4" rx="2" fill="#06b6d4" opacity="0.6"/>
  <rect x="244" y="410" width="36" height="7" rx="3.5" fill="#7b68ee" opacity="0.7"/>
  <rect x="286" y="412" width="40" height="4" rx="2" fill="#10b981" opacity="0.6"/>
  <rect x="228" y="424" width="8" height="7" rx="1.5" fill="#94a3b8" opacity="0.5"/>
</svg>
